<svg xmlns="http://www.w3.org/2000/svg" height="48" viewBox="0 -960 960 960" width="48"><path d="M452.5-195.5 252.5-312q-12.275-8.926-19.387-21.058Q226-345.19 226-359v-234q0-13.81 7.113-25.942Q240.225-631.074 252.5-640l201-118.5q12.689-6.5 26.344-6.5 13.656 0 27.656 6.5l201 118.5q11.225 8.563 18.362 20.808Q734-606.948 734-593v234q0 13.948-6.9 26.192-6.9 12.245-19.6 20.808l-201 116.5q-14.082 8.5-27.574 8.5t-26.426-8.5Zm16.5-16v-260L248-596v235.5q0 9.5 4 16.5t12 10.5l205 122Zm22 0 205-122.168q8-3.5 12-10.5t4-16.5V-596L491-471.5v260ZM132-683v-91q0-21.75 16.125-37.875T186-828h91v22h-91q-14 0-23 9t-9 23v91h-22Zm145 551h-91q-21.75 0-37.875-16.125T132-186v-91h22v91q0 14 9 23t23 9h91v22Zm406 0v-22h91q14 0 23-9t9-23v-91h22v91q0 21.75-16.125 37.875T774-132h-91Zm123-551v-91q0-14-9-23t-23-9h-91v-22h91q21.75 0 37.875 16.125T828-774v91h-22ZM480-490.5l222-128L496-736q-8-4-16-4t-16 4L258-618.5l222 128Zm0 8.5Zm0-8.5Zm11 19Zm-22 0Z"/></svg>